<svg width="19" height="17" viewBox="0 0 19 17" fill="none" xmlns="http://www.w3.org/2000/svg"><path d="M17.3622 1.66946C16.3061 0.592914 14.9019 0 13.4083 0C11.9147 0 10.5105 0.592871 9.45434 1.66941L3.93585 7.29461C3.93585 7.29461 3.93573 7.29474 3.93569 7.29483L0.925751 10.3629C0.258627 11.043 -0.0661815 11.9823 0.0112272 13.0079C0.0858431 13.9966 0.529411 14.9513 1.26023 15.6963C2.0597 16.5112 3.12496 16.9786 4.18288 16.9785C5.07677 16.9785 5.897 16.6442 6.49243 16.0373V16.0372L15.021 7.34369C15.4518 6.90459 15.6891 6.32077 15.6891 5.69977C15.6891 5.07877 15.4518 4.49495 15.021 4.0559C14.5903 3.6168 14.0176 3.37498 13.4083 3.37498C12.7991 3.37498 12.2264 3.6168 11.7956 4.0559L3.26698 12.7493C3.14889 12.8697 3.08382 13.0298 3.08382 13.2C3.08382 13.3703 3.14889 13.5304 3.26694 13.6507C3.38503 13.7711 3.5421 13.8374 3.70909 13.8374C3.87608 13.8374 4.0331 13.7711 4.15124 13.6507L12.6798 4.95725C12.8744 4.7589 13.1332 4.64966 13.4083 4.64966C13.6835 4.64966 13.9422 4.7589 14.1368 4.95725C14.3314 5.1556 14.4386 5.41929 14.4386 5.69977C14.4386 5.98025 14.3314 6.24395 14.1368 6.4423L5.60817 15.1358L5.60804 15.136C5.2478 15.5031 4.7415 15.7052 4.18238 15.7052C3.45477 15.7052 2.71199 15.3734 2.14449 14.7949C1.6246 14.2649 1.30979 13.5955 1.25806 12.9101C1.20912 12.2615 1.40513 11.677 1.81005 11.2643L4.81995 8.19622C4.82003 8.19614 4.82011 8.19609 4.82016 8.19601L10.3386 2.57081C11.1586 1.73502 12.2488 1.27472 13.4083 1.27472C14.5679 1.27472 15.658 1.73502 16.478 2.57081C17.2979 3.4066 17.7495 4.51781 17.7495 5.69977C17.7495 6.88173 17.2979 7.99299 16.478 8.82878L9.78895 15.6471C9.67081 15.7675 9.6057 15.9276 9.6057 16.0979C9.6057 16.2681 9.67081 16.4282 9.7887 16.5484C9.90679 16.6689 10.0639 16.7352 10.231 16.7352C10.398 16.7352 10.5551 16.6688 10.6731 16.5485L17.3622 9.73009C18.4183 8.65355 19 7.22221 19 5.69973C19 4.17725 18.4183 2.74595 17.3622 1.66946Z" fill="#ec1d22"/></svg>