<svg width="17" height="18" viewBox="0 0 17 18" fill="none" xmlns="http://www.w3.org/2000/svg">
<path d="M13.5748 1.66447L8.5 7.27105L3.42522 1.66446L3.11042 1.31668L2.74329 1.60868L1.68876 2.44739L1.27109 2.77959L1.62977 3.17475L8.12977 10.336L8.5 10.7439L8.87023 10.336L15.3702 3.17476L15.7289 2.77959L15.3112 2.44739L14.2567 1.60868L13.8896 1.31668L13.5748 1.66447Z" fill="#EC1D22" stroke="#EC1D22"/>
<path d="M3.42522 16.3355L8.5 10.7289L13.5748 16.3355L13.8896 16.6833L14.2567 16.3913L15.3112 15.5526L15.7289 15.2204L15.3702 14.8252L8.87023 7.66395L8.5 7.25605L8.12977 7.66395L1.62977 14.8252L1.27109 15.2204L1.68877 15.5526L2.74329 16.3913L3.11042 16.6833L3.42522 16.3355Z" fill="#EC1D22" stroke="#EC1D22"/>
</svg>
