<svg width="12" height="14" viewBox="0 0 12 14" fill="none" xmlns="http://www.w3.org/2000/svg">
<path d="M0.300084 11.7725H2.40013V13.6819C2.40013 13.7748 2.42815 13.8508 2.48454 13.9103C2.54077 13.9701 2.61265 14 2.70021 14H4.26576C4.34701 14 4.41732 13.9701 4.47671 13.9103C4.53609 13.8508 4.56569 13.7747 4.56569 13.6819V11.7725H9.30007C9.38745 11.7725 9.45936 11.743 9.51572 11.6832C9.57213 11.6234 9.60013 11.5473 9.60013 11.4544V10.1816C9.60013 10.0893 9.57213 10.0127 9.51572 9.95322C9.45952 9.8934 9.38745 9.86348 9.30007 9.86348H4.56554V8.69013H7.75305C9.00299 8.69013 10.0232 8.28618 10.814 7.47713C11.6045 6.66893 12 5.62492 12 4.34507C12 3.06606 11.6045 2.02203 10.814 1.213C10.0233 0.404774 9.00296 0 7.75305 0H2.70006C2.61247 0 2.54074 0.0298867 2.48438 0.0893581C2.42815 0.149159 2.39997 0.225728 2.39997 0.318105V6.57252H0.300084C0.21252 6.57252 0.140766 6.60394 0.0844076 6.6669C0.0282049 6.72988 0 6.80445 0 6.89059V8.37197C0 8.46487 0.0280237 8.54097 0.0844076 8.60075C0.140791 8.66058 0.212364 8.69011 0.300084 8.69011H2.40013V9.86345H0.300084C0.21252 9.86345 0.140766 9.89337 0.0844076 9.9532C0.0282049 10.0126 0 10.0891 0 10.1816V11.4544C0 11.5473 0.0280237 11.6234 0.0844076 11.6831C0.140766 11.743 0.212494 11.7725 0.300084 11.7725ZM4.56554 2.11811H7.56555C8.22798 2.11811 8.76227 2.32353 9.16865 2.73451C9.57482 3.14551 9.778 3.68262 9.778 4.34523C9.778 5.00817 9.57482 5.54545 9.16865 5.95596C8.76227 6.36729 8.22795 6.57271 7.56555 6.57271H4.56554V2.11811Z" fill="#EC1D22"/>
</svg>
