<svg width="309" height="50" viewBox="0 0 309 50" fill="none" xmlns="http://www.w3.org/2000/svg">
<path d="M81.9845 10.247H72.9357V5.12375H82.53V0.273224H67.1602V23.5296H72.9357V14.9552H81.9845V10.247Z" fill="black"/>
<path d="M11.1953 10.7214C10.9243 11.0444 10.5845 11.3027 10.2007 11.4771C9.81694 11.6516 9.39888 11.7378 8.97741 11.7296H4.95718V5.42027H8.97741C9.40187 5.40776 9.82351 5.49449 10.2085 5.67362C10.5935 5.85274 10.9314 6.11945 11.1953 6.45219C11.6728 7.06958 11.9278 7.82996 11.9188 8.6104C11.9314 9.37692 11.6753 10.1237 11.1953 10.7214ZM16.7335 8.63414V8.50385C16.7531 6.52864 16.0678 4.61111 14.8006 3.09586C14.071 2.28113 13.1712 1.6367 12.1649 1.20837C11.1587 0.780035 10.0704 0.578167 8.97741 0.617132H0V23.1501H4.9453V16.3075H8.96583C10.043 16.3552 11.1174 16.1675 12.1148 15.7579C13.1122 15.3483 14.0085 14.7266 14.7412 13.9356C16.0301 12.4709 16.7386 10.5851 16.7335 8.63414Z" fill="black"/>
<path d="M31.5579 23.1974H37.0133V22.5926L31.9137 15.0383L32.2696 14.8602C33.547 14.2406 34.6271 13.2782 35.3893 12.0804C36.1516 10.8825 36.566 9.49631 36.5863 8.07663V7.95821C36.6093 6.96711 36.4268 5.98183 36.0501 5.06486C35.6733 4.14788 35.1105 3.31905 34.3974 2.63042C33.6842 1.94179 32.8361 1.4085 31.9065 1.06402C30.9769 0.719548 29.986 0.571229 28.9963 0.628847H20.3864V23.1618H25.3079V12.6426L31.5579 23.1618V23.1974Z" fill="black"/>
<path d="M55.9053 17.0661C54.639 18.1921 52.9984 18.8052 51.304 18.7857H51.2327C49.895 18.6919 48.6123 18.2162 47.5368 17.4153C46.4613 16.6144 45.6381 15.5219 45.1649 14.2672C44.6917 13.0124 44.5884 11.6484 44.8672 10.3367C45.1461 9.02501 45.7953 7.82062 46.7379 6.86686C47.9716 5.75261 49.5704 5.12831 51.2327 5.11169H51.3749C53.0546 5.09488 54.6797 5.70841 55.929 6.83125C56.6149 7.49633 57.1532 8.29842 57.5088 9.18519C57.8643 10.072 58.0291 11.0237 57.9926 11.9784C58.0313 12.9267 57.8649 13.872 57.5047 14.7501C57.1445 15.6282 56.5989 16.4183 55.9053 17.0661ZM51.3749 0.379771C49.0978 0.393833 46.8758 1.08149 44.9886 2.35587C43.1014 3.63024 41.6336 5.43452 40.7697 7.54149C39.9058 9.64846 39.6845 11.9638 40.1339 14.1962C40.5833 16.4286 41.6832 18.478 43.2951 20.0866C44.9069 21.6951 46.9588 22.791 49.1921 23.2359C51.4254 23.6807 53.7405 23.4549 55.8456 22.5867C57.9508 21.7186 59.7521 20.2467 61.0226 18.3569C62.2931 16.4671 62.976 14.2437 62.9854 11.9665C63.0029 10.438 62.7146 8.9217 62.137 7.50645C61.5595 6.09121 60.7043 4.80571 59.6224 3.72596C58.5404 2.64621 57.2534 1.79381 55.837 1.21914C54.4205 0.644473 52.9033 0.3591 51.3749 0.379771Z" fill="black"/>
<path d="M104.778 23.5652L95.1839 0.237671H91.5074L82.2808 23.5652H87.748L93.061 9.34574L93.3812 8.49186L98.967 23.5652H104.778Z" fill="black"/>
<path d="M108.384 21.8811C110.078 23.0957 112.11 23.7506 114.195 23.7547C116.401 23.7628 118.552 23.0693 120.338 21.7743C121.213 21.1535 121.928 20.3322 122.421 19.379C122.914 18.4258 123.171 17.3686 123.172 16.2954C123.162 15.7619 123.106 15.2302 123.006 14.7061C122.811 13.8325 122.416 13.016 121.852 12.3206C121.288 11.6252 120.571 11.0695 119.757 10.6975C118.148 9.96604 116.429 9.50919 114.669 9.34561C114.396 9.34561 113.803 9.34575 113.163 9.19157C112.495 9.1061 111.864 8.83935 111.337 8.42054C111.155 8.26095 111.009 8.06375 110.911 7.84262C110.813 7.62148 110.764 7.38159 110.767 7.13962C110.769 6.7784 110.863 6.42356 111.039 6.10829C111.215 5.79301 111.469 5.52789 111.775 5.33725C112.49 4.90845 113.315 4.69819 114.147 4.7324C115.011 4.69361 115.864 4.93469 116.579 5.42006C116.858 5.62251 117.089 5.88335 117.257 6.18444C117.425 6.48552 117.525 6.81956 117.551 7.16336H122.722C122.715 6.12686 122.471 5.1058 122.011 4.17707C121.551 3.24834 120.886 2.43627 120.065 1.80286C118.297 0.592858 116.196 -0.0366074 114.054 0.00164567C111.912 0.0398987 109.835 0.744181 108.111 2.01654C107.287 2.67918 106.627 3.52203 106.181 4.48022C105.735 5.4384 105.515 6.48621 105.537 7.54295C105.537 7.6734 105.537 7.81583 105.537 7.95814C105.599 9.06594 105.933 10.1413 106.51 11.0889C107.01 11.8657 107.7 12.5025 108.514 12.9391C110.246 13.775 112.131 14.2472 114.052 14.3265C114.361 14.3265 114.966 14.3979 115.606 14.5165C116.262 14.6053 116.881 14.8717 117.397 15.2872C117.562 15.4391 117.695 15.6219 117.788 15.8255C117.882 16.029 117.934 16.2492 117.942 16.4732C117.953 16.8559 117.836 17.2311 117.61 17.5404C117.388 17.8375 117.094 18.0741 116.756 18.2283C115.946 18.5802 115.066 18.7462 114.183 18.7145C113.594 18.7187 113.008 18.6225 112.451 18.4299C111.812 18.2108 111.273 17.7689 110.933 17.1848C110.735 16.8179 110.614 16.4143 110.578 15.9989H105.383C105.384 17.138 105.652 18.261 106.165 19.2782C106.678 20.2954 107.421 21.1787 108.336 21.8574" fill="black"/>
<path d="M144.994 23.4348V0.379944H139.87V9.32198H132.612H132.268V0.379944H127.157V23.4348H132.268V14.2437H139.87V23.4348H144.994Z" fill="black"/>
<path d="M176.505 17.2203C175.197 18.3755 173.505 19.0016 171.761 18.9758H171.677C169.861 18.9012 168.143 18.1268 166.884 16.815C165.625 15.5031 164.922 13.7554 164.922 11.9371C164.922 10.1188 165.625 8.37083 166.884 7.05899C168.143 5.74716 169.861 4.97305 171.677 4.89846H171.832C173.558 4.87965 175.228 5.51523 176.505 6.67738C177.212 7.35922 177.769 8.18271 178.136 9.09416C178.504 10.0056 178.675 10.9845 178.639 11.9667C178.675 12.9457 178.501 13.9211 178.128 14.8273C177.756 15.7335 177.195 16.5493 176.481 17.2203M171.82 0.0240941C169.483 0.0475218 167.205 0.760964 165.272 2.0746C163.339 3.38824 161.838 5.24371 160.956 7.40789C160.075 9.57207 159.852 11.9486 160.316 14.239C160.78 16.5293 161.91 18.6316 163.565 20.2816C165.22 21.9316 167.326 23.0557 169.618 23.5131C171.909 23.9705 174.285 23.7407 176.447 22.8524C178.608 21.9641 180.459 20.4571 181.767 18.5203C183.075 16.5836 183.782 14.3036 183.798 11.9667C183.809 10.3923 183.506 8.83144 182.908 7.37517C182.31 5.9189 181.427 4.5963 180.312 3.48465C179.197 2.373 177.872 1.49466 176.414 0.900525C174.956 0.306393 173.394 0.0083105 171.82 0.0240941Z" fill="black"/>
<path d="M205.323 23.4348V0.379944H200.271V12.9866L191.542 0.379944H187.593V23.4348H192.669V11.1365L201.302 23.4348H205.323Z" fill="black"/>
<path d="M150.473 23.4704H156.13V0.344391H150.473V23.4704Z" fill="black"/>
<path d="M10.7564 48.1736H13.6029L11.1122 43.6076L13.4841 39.4568H10.8989L9.11994 42.8487H8.0527V39.4568H5.68081V42.8487H4.57767L2.82249 39.4568H0.237211L2.6091 43.6076L0.130371 48.1736H2.98869L4.70825 44.841H5.73988V48.1736H8.11177V44.841H9.15555L10.8395 48.1736H10.7564ZM20.8607 39.4686L18.75 43.6788L16.7099 39.4686H14.1127L17.5047 45.7424C17.3691 45.9469 17.1959 46.1239 16.9945 46.2641C16.796 46.3649 16.5769 46.4178 16.3543 46.4184C16.0567 46.4111 15.7614 46.3631 15.4767 46.276L14.8956 48.0905C15.3857 48.2906 15.908 48.3992 16.4371 48.4107C17.0875 48.4085 17.7228 48.2146 18.2635 47.8534C18.8507 47.4189 19.3295 46.8549 19.6629 46.205L23.2801 39.4686H20.8607ZM28.4153 39.4686H24.4304V48.1736H26.9091V45.9085H28.4272C29.1311 45.9246 29.8303 45.7911 30.4789 45.5171C31.0249 45.285 31.4937 44.9026 31.8307 44.4142C32.1517 43.9038 32.3129 43.3089 32.2934 42.7063C32.319 42.1046 32.1586 41.5098 31.8339 41.0026C31.5092 40.4954 31.036 40.1006 30.4789 39.872C29.8335 39.5866 29.1326 39.4488 28.4272 39.4686H28.4153ZM28.261 43.9634H26.9091V41.3663H28.2729C28.6953 41.3301 29.1166 41.4481 29.4588 41.6984C29.5888 41.8182 29.6905 41.9656 29.7562 42.1298C29.8218 42.2939 29.8499 42.4708 29.8384 42.6472C29.8481 42.8217 29.8192 42.996 29.7536 43.1579C29.688 43.3199 29.5872 43.4656 29.4588 43.5841C29.1175 43.8364 28.6955 43.9543 28.2729 43.9159L28.261 43.9634ZM39.6225 39.4686V42.7419H36.2543V39.4686H33.7877V48.1736H36.2543V44.7817H39.6225V48.1736H42.0893V39.4686H39.6225ZM51.0433 48.1736H53.6167L49.7505 39.4686H47.3192L43.4768 48.1736H45.9911L46.6788 46.4897H50.3672L51.0433 48.1736ZM47.3905 44.6751L48.5052 41.888L49.6318 44.6751H47.3905ZM56.202 39.4686L56.0717 42.9437C56.0717 43.6908 55.9885 44.2838 55.9292 44.7463C55.8844 45.1261 55.7546 45.4908 55.5496 45.8136C55.4696 45.9379 55.3589 46.0394 55.228 46.108C55.097 46.1766 54.9504 46.2101 54.8026 46.205C54.6922 46.2167 54.5809 46.2167 54.4705 46.205L54.3399 48.2092C54.7034 48.3081 55.0783 48.3598 55.455 48.3632C55.7616 48.383 56.0688 48.336 56.3554 48.2254C56.6421 48.1149 56.9012 47.9436 57.1152 47.7231C57.5464 47.2062 57.8328 46.5841 57.9453 45.9204C58.1308 44.9185 58.234 43.9031 58.2536 42.8843V41.4612H60.7561V48.2092H63.1874V39.5043L56.202 39.4686ZM73.7778 48.3514C74.6433 48.3673 75.4993 48.1676 76.2684 47.7703C76.8037 47.4802 77.2749 47.0853 77.6541 46.6089C78.0333 46.1326 78.3128 45.5847 78.4755 44.998C78.6383 44.4112 78.6809 43.7978 78.6012 43.1941C78.5215 42.5905 78.3211 42.0094 78.0117 41.485C77.5864 40.7972 76.9844 40.2359 76.2684 39.8601C75.4998 39.4614 74.6434 39.2616 73.7778 39.279C72.9124 39.2641 72.0566 39.4638 71.2872 39.8601C70.5717 40.2323 69.9726 40.7946 69.5557 41.485C69.1443 42.1927 68.9277 42.9966 68.9277 43.8152C68.9277 44.6338 69.1443 45.4379 69.5557 46.1457C69.9731 46.8357 70.572 47.3976 71.2872 47.7703C72.0563 48.1676 72.9123 48.3673 73.7778 48.3514ZM73.7778 46.3116C73.3618 46.3185 72.9518 46.2119 72.5918 46.0032C72.2324 45.798 71.9401 45.4932 71.7499 45.1256C71.5342 44.7255 71.4278 44.2757 71.4415 43.8213C71.4282 43.3707 71.5346 42.9245 71.7499 42.5285C71.943 42.1599 72.2344 41.8521 72.5918 41.639C72.9533 41.4341 73.3623 41.3278 73.7778 41.3307C74.1933 41.3278 74.6022 41.4341 74.9637 41.639C75.3218 41.8551 75.6163 42.1619 75.8176 42.5285C76.0277 42.9265 76.1338 43.3713 76.1259 43.8213C76.1338 44.2751 76.0277 44.7234 75.8176 45.1256C75.6194 45.4914 75.3239 45.7951 74.9637 46.0032C74.6038 46.2119 74.1938 46.3185 73.7778 46.3116ZM94.4844 48.1736V39.4686H92.4446L89.456 44.4971L86.3843 39.4686H84.3445V48.1736H86.6217V43.6669L88.8749 47.3198H89.9658L92.2193 43.5604V48.1736H94.4844ZM101.007 48.3514C101.872 48.3663 102.728 48.1666 103.498 47.7703C104.031 47.478 104.5 47.0818 104.877 46.6049C105.254 46.128 105.531 45.5801 105.693 44.9939C105.854 44.4077 105.897 43.7952 105.817 43.1924C105.737 42.5896 105.537 42.0091 105.229 41.485C104.808 40.7976 104.21 40.2362 103.498 39.8601C102.723 39.4774 101.871 39.2784 101.007 39.2784C100.143 39.2784 99.2909 39.4774 98.5165 39.8601C97.9811 40.1502 97.51 40.5451 97.1307 41.0214C96.7515 41.4978 96.472 42.0457 96.3093 42.6324C96.1466 43.2191 96.104 43.8326 96.1837 44.4362C96.2634 45.0399 96.4637 45.6213 96.7732 46.1457C97.1984 46.8335 97.8004 47.3945 98.5165 47.7703C99.2856 48.1676 100.142 48.3673 101.007 48.3514ZM101.007 46.3116C100.589 46.3213 100.177 46.2159 99.8148 46.0067C99.4529 45.7975 99.1556 45.4926 98.9554 45.1256C98.7452 44.7234 98.6392 44.2751 98.647 43.8213C98.6392 43.3713 98.7452 42.9265 98.9554 42.5285C99.1535 42.1598 99.4503 41.8534 99.8127 41.6439C100.175 41.4345 100.589 41.3301 101.007 41.3425C101.423 41.3397 101.832 41.446 102.193 41.6509C102.55 41.864 102.842 42.1718 103.035 42.5404C103.25 42.9364 103.357 43.3826 103.343 43.8331C103.357 44.2875 103.251 44.7373 103.035 45.1375C102.845 45.5051 102.552 45.8099 102.193 46.0151C101.833 46.2238 101.423 46.3304 101.007 46.3235V46.3116ZM115.499 46.2288V39.4686H108.467L108.36 42.1608C108.354 43.1771 108.222 44.1889 107.969 45.1731C107.767 45.8728 107.399 46.2288 106.877 46.2406H106.569V49.9525H108.846V48.1855H114.432V49.9525H116.697V46.2406H115.511L115.499 46.2288ZM110.518 42.3626V41.4138H113.021V46.2169H109.724C110.001 45.7599 110.182 45.2516 110.258 44.7226C110.401 43.94 110.477 43.1464 110.483 42.3507L110.518 42.3626ZM120.694 46.276V44.687H124.572V42.8487H120.694V41.3663H125.094V39.4568H118.227V48.1736H125.236V46.2641H120.682L120.694 46.276ZM139.242 46.276V39.5161H132.209L132.103 42.2083C132.097 43.2246 131.965 44.2364 131.711 45.2206C131.498 45.9203 131.142 46.276 130.62 46.2878H130.312V50H132.577V48.233H138.174V50H140.428V46.2878H139.242V46.276ZM134.261 42.4098V41.4612H136.763V46.2641H133.454C133.741 45.8106 133.927 45.3014 134 44.7701C134.132 43.9859 134.208 43.1932 134.226 42.3982L134.261 42.4098ZM143.097 39.5161L142.966 42.9912C142.966 43.7383 142.883 44.331 142.824 44.7935C142.779 45.1733 142.649 45.5382 142.444 45.8611C142.362 45.9863 142.249 46.0881 142.116 46.1567C141.983 46.2253 141.834 46.2585 141.685 46.2525C141.574 46.2642 141.463 46.2642 141.353 46.2525L141.223 48.2567C141.586 48.3556 141.961 48.4073 142.337 48.4107C142.644 48.4305 142.951 48.3835 143.238 48.2729C143.525 48.1623 143.784 47.9908 143.998 47.7703C144.429 47.2534 144.716 46.6313 144.828 45.9676C145.014 44.9657 145.116 43.9505 145.136 42.9318V41.5087H147.638V48.2567H150.07V39.5517L143.097 39.5161ZM155.762 39.5161C155.054 39.504 154.351 39.6415 153.699 39.9195C153.136 40.1697 152.661 40.5827 152.335 41.1054C152.008 41.64 151.843 42.2579 151.86 42.8843C151.84 43.493 151.997 44.0945 152.311 44.6158C152.633 45.1158 153.101 45.5048 153.651 45.7305L151.872 48.2686H154.47L155.916 46.0863H157.257V48.2686H159.735V39.5636L155.762 39.5161ZM155.762 41.4612H157.209V44.1415H155.738C155.352 44.1673 154.97 44.0442 154.671 43.7975C154.546 43.6625 154.45 43.5035 154.389 43.3302C154.328 43.1569 154.303 42.9727 154.316 42.7894C154.316 41.8999 154.79 41.4612 155.762 41.4612ZM165.89 39.5161V48.2211H168.322V41.4731H171.642V48.2211H174.085V39.5161H165.89ZM180.323 39.5161H176.338V48.2211H178.805V45.956H180.323C181.027 45.972 181.726 45.8386 182.375 45.5646C182.921 45.3325 183.39 44.9501 183.727 44.4617C183.977 44.0852 184.142 43.6581 184.209 43.2109C184.276 42.7637 184.244 42.3073 184.115 41.8738C183.986 41.4404 183.764 41.0407 183.463 40.7029C183.162 40.3652 182.79 40.0977 182.375 39.9195C181.729 39.6341 181.028 39.4963 180.323 39.5161ZM180.169 44.0109H178.805V41.3663H180.169C180.591 41.3301 181.013 41.4481 181.355 41.6984C181.487 41.8171 181.591 41.9638 181.658 42.1281C181.726 42.2923 181.756 42.4698 181.746 42.6472C181.755 42.8226 181.724 42.9977 181.656 43.1597C181.588 43.3217 181.485 43.4667 181.355 43.5841C181.012 43.8325 180.591 43.95 180.169 43.9159V44.0109ZM190.107 48.3989C190.973 48.4137 191.828 48.2141 192.598 47.8178C193.311 47.4421 193.909 46.8809 194.329 46.1932C194.764 45.48 194.982 44.6561 194.958 43.8213C194.98 42.9867 194.762 42.1634 194.329 41.4494C193.905 40.7646 193.308 40.2039 192.598 39.8245C191.823 39.4427 190.971 39.2443 190.107 39.2443C189.243 39.2443 188.391 39.4427 187.617 39.8245C186.898 40.1964 186.295 40.7585 185.873 41.4494C185.438 42.1623 185.22 42.9864 185.245 43.8213C185.23 44.6372 185.445 45.4409 185.864 46.141C186.283 46.8412 186.89 47.4097 187.617 47.7821C188.386 48.1794 189.242 48.3791 190.107 48.3632V48.3989ZM190.107 46.3591C189.688 46.3728 189.275 46.269 188.912 46.0594C188.549 45.8498 188.252 45.5428 188.055 45.1731C187.845 44.7709 187.74 44.3225 187.747 43.8688C187.739 43.4188 187.845 42.974 188.055 42.576C188.209 42.3032 188.416 42.0635 188.663 41.8709C188.91 41.6784 189.193 41.5367 189.495 41.454C189.797 41.3713 190.113 41.3493 190.423 41.3892C190.734 41.429 191.034 41.5302 191.305 41.6865C191.663 41.8996 191.954 42.2074 192.147 42.576C192.357 42.974 192.463 43.4188 192.455 43.8688C192.463 44.3225 192.357 44.7709 192.147 45.1731C191.957 45.5407 191.665 45.8455 191.305 46.0507C190.945 46.2594 190.535 46.366 190.119 46.3591H190.107ZM207.41 43.8569C207.431 43.344 207.335 42.833 207.13 42.3626C206.924 41.8921 206.615 41.4744 206.225 41.141C205.256 40.3984 204.076 39.9831 202.856 39.9551V39.0656H200.591V39.9551C199.366 39.9764 198.181 40.3923 197.211 41.141C196.841 41.4851 196.546 41.9017 196.344 42.3649C196.143 42.8281 196.039 43.3279 196.039 43.8331C196.039 44.3384 196.143 44.8382 196.344 45.3014C196.546 45.7646 196.841 46.1812 197.211 46.5253C198.178 47.2701 199.359 47.6857 200.579 47.7112V48.6716H202.844V47.7112C204.068 47.7031 205.254 47.2856 206.212 46.5253C206.601 46.196 206.911 45.7823 207.116 45.3159C207.322 44.8494 207.418 44.3425 207.398 43.8331L207.41 43.8569ZM202.868 45.7542V41.9355C203.449 41.959 204.009 42.162 204.469 42.5166C204.651 42.6818 204.794 42.886 204.886 43.1139C204.979 43.3418 205.018 43.5877 205.003 43.8331C205.016 44.079 204.976 44.3246 204.886 44.5538C204.796 44.783 204.658 44.9901 204.481 45.1613C204.023 45.5314 203.456 45.7398 202.868 45.7542ZM198.468 43.8569C198.45 43.6098 198.486 43.3617 198.574 43.1301C198.662 42.8986 198.8 42.6892 198.978 42.5166C199.448 42.1543 200.022 41.9508 200.615 41.9355V45.7424C200.03 45.7104 199.468 45.5038 199.002 45.1494C198.821 44.9878 198.68 44.7877 198.588 44.5639C198.495 44.3402 198.455 44.0986 198.468 43.8569ZM211.514 46.3235V44.7345H215.475V42.8962H211.597V41.3663H215.996V39.4568H209.153V48.1736H216.163V46.2641H211.597L211.514 46.3235ZM222.104 48.3989C222.845 48.4098 223.581 48.2645 224.263 47.9721C224.884 47.7114 225.433 47.3045 225.863 46.7861L224.286 45.3746C224.044 45.691 223.731 45.9467 223.373 46.1216C223.015 46.2966 222.621 46.386 222.223 46.3828C221.783 46.3949 221.349 46.2884 220.965 46.0745C220.597 45.8734 220.296 45.5682 220.1 45.1969C219.89 44.7946 219.784 44.346 219.792 43.8922C219.784 43.4422 219.89 42.9977 220.1 42.5997C220.304 42.2316 220.603 41.9246 220.965 41.7103C221.351 41.5 221.784 41.3938 222.223 41.4019C222.622 41.401 223.016 41.4925 223.374 41.6694C223.732 41.8464 224.045 42.1038 224.286 42.4216L225.863 41.0104C225.433 40.492 224.884 40.0852 224.263 39.8245C223.581 39.5321 222.845 39.3868 222.104 39.3977C221.246 39.3818 220.398 39.5816 219.637 39.9788C218.926 40.3475 218.331 40.9056 217.918 41.5915C217.495 42.3098 217.277 43.1302 217.289 43.9634C217.274 44.7971 217.492 45.6183 217.918 46.3353C218.331 47.0213 218.926 47.5797 219.637 47.9483C220.398 48.3456 221.246 48.5454 222.104 48.5294V48.3989ZM231.414 48.3989C232.155 48.4098 232.89 48.2645 233.572 47.9721C234.193 47.7114 234.743 47.3045 235.173 46.7861L233.596 45.3746C233.355 45.6901 233.045 45.9456 232.689 46.1205C232.333 46.2954 231.941 46.3851 231.544 46.3828C231.101 46.3965 230.663 46.2899 230.275 46.0745C229.907 45.8734 229.606 45.5682 229.41 45.1969C229.205 44.7926 229.099 44.3453 229.101 43.8922C229.094 43.4422 229.199 42.9977 229.41 42.5997C229.614 42.2316 229.913 41.9246 230.275 41.7103C230.664 41.4991 231.101 41.3928 231.544 41.4019C231.942 41.4019 232.334 41.4939 232.69 41.6709C233.046 41.8478 233.356 42.1047 233.596 42.4216L235.173 41.0104C234.743 40.492 234.193 40.0852 233.572 39.8245C232.89 39.5321 232.155 39.3868 231.414 39.3977C230.556 39.3828 229.708 39.5825 228.947 39.9788C228.236 40.3475 227.641 40.9056 227.228 41.5915C226.805 42.3098 226.587 43.1302 226.599 43.9634C226.584 44.7971 226.802 45.6183 227.228 46.3353C227.641 47.0213 228.236 47.5797 228.947 47.9483C229.707 48.3456 230.556 48.5454 231.414 48.5294V48.3989ZM236.644 48.2211H239.016L242.574 43.1333V48.2211H244.946V39.5161H242.751L239.135 44.6395V39.5161H236.763V48.2211H236.644ZM251.539 48.3989C252.405 48.4147 253.26 48.215 254.03 47.8178C254.565 47.5277 255.037 47.1328 255.416 46.6564C255.795 46.1801 256.074 45.6321 256.237 45.0454C256.4 44.4587 256.442 43.8452 256.363 43.2416C256.283 42.638 256.083 42.0566 255.773 41.5322C255.348 40.8444 254.746 40.2834 254.03 39.9076C253.261 39.5089 252.405 39.3091 251.539 39.3265C250.674 39.3116 249.818 39.5112 249.049 39.9076C248.336 40.2832 247.738 40.8444 247.317 41.5322C246.906 42.2399 246.689 43.0441 246.689 43.8627C246.689 44.6813 246.906 45.4854 247.317 46.1932C247.741 46.878 248.339 47.4384 249.049 47.8178C249.818 48.2141 250.674 48.4137 251.539 48.3989ZM251.539 46.3591C251.124 46.366 250.713 46.2594 250.354 46.0507C249.994 45.8455 249.702 45.5407 249.512 45.1731C249.301 44.7709 249.195 44.3225 249.203 43.8688C249.195 43.4188 249.301 42.974 249.512 42.576C249.705 42.2074 249.996 41.8996 250.354 41.6865C250.715 41.4816 251.124 41.3753 251.539 41.3782C251.958 41.3658 252.371 41.4701 252.734 41.6796C253.096 41.889 253.393 42.1954 253.591 42.5641C253.801 42.9621 253.907 43.4069 253.899 43.8569C253.907 44.3107 253.801 44.759 253.591 45.1613C253.393 45.527 253.097 45.8307 252.737 46.0388C252.377 46.2475 251.967 46.3541 251.551 46.3472L251.539 46.3591ZM263.932 39.5161V42.7894H260.552V39.5161H258.169V48.2211H260.636V44.8292H264.016V48.2211H266.47V39.5161H263.932ZM275.353 48.2211H277.927L274.049 39.5161H271.617L267.763 48.2211H270.289L270.977 46.5371H274.772L275.46 48.2211H275.353ZM271.701 44.7226L272.815 41.9355L273.93 44.7226H271.701ZM280.5 39.5161L280.382 42.9912C280.366 43.5946 280.315 44.1963 280.227 44.7935C280.183 45.1733 280.053 45.5382 279.848 45.8611C279.771 45.9862 279.663 46.0884 279.534 46.1573C279.404 46.2261 279.259 46.2591 279.113 46.2525C279.002 46.2648 278.891 46.2648 278.78 46.2525L278.638 48.2567C279.006 48.3548 279.384 48.4065 279.765 48.4107C280.07 48.4304 280.375 48.3832 280.66 48.2726C280.945 48.162 281.202 47.9905 281.413 47.7703C281.844 47.2517 282.134 46.6308 282.255 45.9676C282.435 44.9649 282.538 43.9502 282.563 42.9318V41.5087H285.066V48.2567H287.497V39.5517L280.5 39.5161ZM294.079 48.3989C294.944 48.4137 295.8 48.2141 296.57 47.8178C297.285 47.4456 297.884 46.8836 298.301 46.1932C298.736 45.48 298.954 44.6561 298.93 43.8213C298.952 42.9867 298.734 42.1634 298.301 41.4494C297.88 40.762 297.282 40.2006 296.57 39.8245C295.795 39.4427 294.943 39.2443 294.079 39.2443C293.215 39.2443 292.364 39.4427 291.589 39.8245C290.865 40.2012 290.259 40.7691 289.836 41.4665C289.413 42.1638 289.189 42.9639 289.189 43.7796C289.189 44.5953 289.413 45.3953 289.836 46.0927C290.259 46.7901 290.865 47.3582 291.589 47.735C292.358 48.1313 293.214 48.3309 294.079 48.3161V48.3989ZM294.079 46.3591C293.663 46.3691 293.252 46.2622 292.893 46.0507C292.533 45.8426 292.238 45.5389 292.039 45.1731C291.829 44.7709 291.723 44.3225 291.731 43.8688C291.723 43.4188 291.829 42.974 292.039 42.576C292.238 42.2072 292.534 41.9009 292.896 41.6914C293.259 41.482 293.673 41.3776 294.091 41.39C294.507 41.3872 294.916 41.4935 295.277 41.6984C295.634 41.9114 295.926 42.2193 296.119 42.5878C296.334 42.9839 296.44 43.4301 296.427 43.8806C296.441 44.335 296.335 44.7848 296.119 45.185C295.929 45.5526 295.636 45.8573 295.277 46.0626C294.917 46.2712 294.507 46.3779 294.091 46.3709L294.079 46.3591ZM306.983 43.6669C307.343 43.4999 307.648 43.2323 307.86 42.8962C308.074 42.5602 308.181 42.1676 308.168 41.7696C308.182 41.4412 308.11 41.1148 307.958 40.8234C307.806 40.532 307.58 40.2856 307.303 40.1091C306.57 39.6709 305.724 39.4604 304.871 39.5043H300.638V48.2211H305.109C306.011 48.2774 306.909 48.0448 307.67 47.5569C307.958 47.3487 308.19 47.0737 308.347 46.7554C308.504 46.4372 308.581 46.0853 308.571 45.7305C308.589 45.268 308.451 44.8132 308.18 44.438C307.867 44.0723 307.455 43.8045 306.994 43.6669H306.983ZM303.069 41.2951H304.646C305.346 41.2951 305.689 41.5796 305.689 42.1489C305.689 42.7182 305.346 43.0027 304.646 43.0027H303.069V41.2951ZM305.014 46.4659H303.069V44.6751H305.014C305.725 44.6751 306.081 44.9716 306.081 45.5527C306.081 46.1338 305.725 46.4659 305.014 46.4659Z" fill="black"/>
<path d="M230.678 18.3591L234.888 14.481C236.105 13.4582 237.122 12.2198 237.889 10.8282C238.416 9.76347 238.685 8.58914 238.672 7.40092C238.687 6.12848 238.301 4.88347 237.568 3.84308C236.796 2.77675 235.734 1.95374 234.509 1.47119C233.082 0.89347 231.553 0.610827 230.014 0.640793C228.082 0.59124 226.168 1.01901 224.44 1.8861C222.926 2.66188 221.654 3.83955 220.764 5.2899L225.448 7.9108C225.868 7.23475 226.455 6.67912 227.154 6.29865C227.852 5.91818 228.638 5.72584 229.433 5.74042C230.193 5.68936 230.947 5.90309 231.567 6.34527C231.809 6.55185 232 6.8113 232.125 7.10328C232.251 7.39525 232.308 7.71186 232.291 8.02922C232.289 8.60285 232.151 9.16795 231.888 9.67785C231.45 10.4097 230.902 11.0696 230.263 11.6345L221.962 19.4382V23.3875H239.312V18.3828L230.678 18.3591ZM251.254 23.8142C253.038 23.8409 254.793 23.3642 256.318 22.4386C257.847 21.4764 259.059 20.0866 259.805 18.4419C260.635 16.471 261.062 14.3541 261.062 12.2156C261.062 10.0772 260.635 7.96032 259.805 5.98942C259.059 4.34468 257.847 2.95519 256.318 1.99293C254.778 1.09254 253.027 0.61792 251.243 0.61792C249.459 0.61792 247.707 1.09254 246.167 1.99293C244.638 2.95519 243.426 4.34468 242.68 5.98942C241.85 7.96032 241.423 10.0772 241.423 12.2156C241.423 14.3541 241.85 16.471 242.68 18.4419C243.426 20.0866 244.638 21.4764 246.167 22.4386C247.699 23.3685 249.463 23.8454 251.254 23.8142ZM251.254 18.6437C250.728 18.6474 250.212 18.5053 249.761 18.2331C249.311 17.961 248.946 17.5694 248.705 17.1019C247.456 13.9642 247.456 10.4674 248.705 7.32969C248.947 6.86493 249.313 6.47539 249.761 6.20368C250.21 5.93197 250.724 5.78849 251.249 5.78849C251.773 5.78849 252.287 5.93197 252.736 6.20368C253.184 6.47539 253.55 6.86493 253.792 7.32969C255.041 10.4674 255.041 13.9642 253.792 17.1019C253.551 17.5667 253.187 17.9563 252.739 18.2282C252.292 18.5001 251.778 18.6439 251.254 18.6437ZM270.941 11.7295L270.775 16.5801C270.754 17.2235 270.695 17.8649 270.597 18.5012C270.546 18.9293 270.386 19.3373 270.134 19.6872C270.014 19.8362 269.86 19.9541 269.685 20.0306C269.509 20.107 269.318 20.1398 269.127 20.1261C268.957 20.1372 268.787 20.1372 268.617 20.1261L268.439 23.4465C269.088 23.6039 269.752 23.6956 270.419 23.7196C270.836 23.7426 271.253 23.682 271.646 23.5415C272.04 23.401 272.4 23.1831 272.708 22.901C273.321 22.2392 273.732 21.4164 273.894 20.5291C274.158 19.2923 274.31 18.034 274.345 16.7698L274.44 14.9909H277.381V23.3875H281.461V11.7176H270.917L270.941 11.7295ZM296.225 17.5643C296.254 16.4305 295.971 15.3105 295.407 14.3267C294.872 13.4364 294.094 12.7166 293.165 12.2513C292.16 11.7649 291.056 11.5174 289.939 11.5277C288.822 11.538 287.723 11.8059 286.726 12.3106C285.778 12.7938 284.985 13.5335 284.437 14.4454C283.893 15.3883 283.606 16.4578 283.606 17.5466C283.606 18.6354 283.893 19.705 284.437 20.6479C285.007 21.575 285.83 22.3198 286.809 22.7945C287.92 23.3209 289.137 23.5845 290.367 23.5652C291.28 23.6288 292.197 23.493 293.053 23.1674C293.909 22.8418 294.684 22.3341 295.324 21.6795L293.178 19.4382C292.828 19.7589 292.427 20.0193 291.992 20.2089C291.525 20.3796 291.03 20.4603 290.533 20.4463C289.88 20.469 289.234 20.3042 288.671 19.9718C288.178 19.649 287.823 19.1545 287.675 18.5843H296.143C296.143 17.932 296.143 17.5999 296.143 17.5643H296.225ZM290.023 14.4335C290.596 14.4149 291.156 14.6045 291.6 14.9671C292.03 15.3451 292.315 15.8607 292.407 16.4258H287.663C287.747 15.858 288.033 15.3398 288.469 14.9671C288.904 14.5962 289.464 14.4053 290.035 14.4335H290.023ZM308.619 11.7295H297.056V14.9671H300.863V23.3637H304.918V14.9671H308.654V11.7176L308.619 11.7295Z" fill="url(#paint0_linear_2_375)"/>
<defs>
<linearGradient id="paint0_linear_2_375" x1="220.764" y1="12.2168" x2="308.654" y2="12.2168" gradientUnits="userSpaceOnUse">
<stop stop-color="#EAC175"/>
<stop offset="0.5" stop-color="#C69552"/>
<stop offset="1" stop-color="#E5C596"/>
</linearGradient>
</defs>
</svg>
