<svg width="83" height="87" viewBox="0 0 83 87" fill="none" xmlns="http://www.w3.org/2000/svg">
<g opacity="0.4">
<path d="M55.5 101.75C81.0432 101.75 101.75 81.0432 101.75 55.5C101.75 29.9568 81.0432 9.25 55.5 9.25C29.9568 9.25 9.25 29.9568 9.25 55.5C9.25 81.0432 29.9568 101.75 55.5 101.75Z" stroke="#EC1D22" stroke-width="3.96491" stroke-linecap="round" stroke-linejoin="round"/>
<path d="M42.041 41.6251C43.1284 38.534 45.2746 35.9276 48.0996 34.2673C50.9245 32.6071 54.2459 32.0002 57.4755 32.5541C60.705 33.1081 63.6343 34.7871 65.7445 37.2939C67.8547 39.8007 69.0096 42.9734 69.0048 46.2501C69.0048 55.5001 55.1298 60.1251 55.1298 60.1251" stroke="#EC1D22" stroke-width="3.96491" stroke-linecap="round" stroke-linejoin="round"/>
<path d="M55.5 78.625H55.5448" stroke="#EC1D22" stroke-width="9" stroke-linecap="round" stroke-linejoin="round"/>
</g>
</svg>
