<svg width="110" height="120" viewBox="0 0 110 120" fill="none" xmlns="http://www.w3.org/2000/svg">
<g opacity="0.4">
<path d="M74.0002 135.667C108.058 135.667 135.667 108.057 135.667 73.9999C135.667 39.9424 108.058 12.3333 74.0002 12.3333C39.9426 12.3333 12.3335 39.9424 12.3335 73.9999C12.3335 108.057 39.9426 135.667 74.0002 135.667Z" stroke="#EC1D22" stroke-width="3.96491" stroke-linecap="round" stroke-linejoin="round"/>
<path d="M56.0552 55.5001C57.505 51.3787 60.3666 47.9034 64.1332 45.6897C67.8998 43.4761 72.3284 42.6669 76.6344 43.4055C80.9405 44.1441 84.8462 46.3828 87.6598 49.7252C90.4734 53.0675 92.0133 57.2978 92.0068 61.6668C92.0068 74.0001 73.5068 80.1668 73.5068 80.1668" stroke="#EC1D22" stroke-width="3.96491" stroke-linecap="round" stroke-linejoin="round"/>
<path d="M74 104.833H74.0597" stroke="#EC1D22" stroke-width="9" stroke-linecap="round" stroke-linejoin="round"/>
</g>
</svg>
