<?xml version="1.0" standalone="no"?>
<!DOCTYPE svg PUBLIC "-//W3C//DTD SVG 20010904//EN"
 "http://www.w3.org/TR/2001/REC-SVG-20010904/DTD/svg10.dtd">
<svg version="1.0" xmlns="http://www.w3.org/2000/svg"
 width="700.000000pt" height="700.000000pt" viewBox="0 0 700.000000 700.000000"
 preserveAspectRatio="xMidYMid meet">
<metadata>
Created by potrace 1.14, written by Peter Selinger 2001-2017
</metadata>
<g transform="translate(0.000000,700.000000) scale(0.100000,-0.100000)"
fill="#000000" stroke="none">
<path d="M4230 6945 c-245 -66 -765 -206 -930 -250 -69 -19 -345 -93 -615
-165 -269 -73 -497 -133 -505 -135 -8 -2 -40 -11 -70 -19 -30 -8 -199 -53
-375 -100 -176 -47 -333 -89 -350 -95 -16 -5 -86 -23 -155 -41 -69 -18 -143
-38 -165 -45 -22 -7 -57 -16 -77 -20 -21 -4 -41 -12 -46 -19 -6 -6 -47 -150
-92 -321 -45 -170 -108 -407 -140 -525 -51 -186 -142 -527 -250 -930 -17 -63
-39 -146 -50 -185 -10 -38 -30 -115 -44 -170 -15 -55 -31 -114 -36 -131 -6
-17 -12 -40 -14 -50 -5 -22 -198 -745 -227 -849 -45 -163 -89 -329 -86 -332 1
-1 578 -579 1281 -1283 853 -853 1285 -1279 1295 -1276 9 3 68 18 131 35 63
17 205 55 315 85 194 52 249 67 270 71 18 5 618 165 765 205 80 22 222 60 315
85 94 25 186 50 205 55 19 5 145 39 280 75 253 68 371 100 765 206 127 34 275
73 330 87 55 14 101 26 103 27 3 3 61 207 67 236 2 8 19 73 38 145 19 71 38
143 43 159 4 17 8 35 10 40 2 6 25 93 53 195 121 451 181 676 220 825 23 88
46 171 51 185 4 14 20 70 34 125 14 55 53 199 85 320 33 121 80 297 105 390
25 94 73 271 106 395 34 124 63 233 65 242 5 22 54 209 60 229 4 10 -402 423
-1277 1297 -705 705 -1284 1282 -1287 1281 -3 0 -94 -25 -201 -54z m2595
-2634 c-44 -164 -64 -237 -100 -371 -21 -74 -39 -144 -41 -155 -2 -11 -11 -42
-19 -70 -8 -27 -40 -144 -71 -260 -70 -267 -220 -823 -274 -1024 -23 -84 -43
-161 -45 -170 -2 -9 -27 -101 -55 -206 -28 -104 -53 -199 -56 -210 -2 -11 -13
-51 -24 -90 -11 -38 -57 -207 -101 -375 -45 -168 -85 -312 -90 -321 -5 -9 -21
-19 -36 -21 -16 -3 -98 -24 -183 -47 -85 -24 -162 -44 -170 -46 -8 -2 -40 -11
-70 -19 -30 -8 -100 -27 -155 -41 -55 -15 -147 -40 -205 -55 -58 -16 -188 -51
-290 -78 -487 -130 -1146 -306 -1240 -332 -135 -37 -708 -191 -729 -195 -9 -2
-73 -19 -142 -38 l-127 -34 -1224 1226 c-1208 1208 -1225 1226 -1217 1256 5
17 22 80 38 140 16 61 42 155 57 210 86 322 105 391 108 405 5 19 41 152 106
395 28 105 62 231 75 280 13 50 89 335 170 635 81 300 178 662 216 805 119
452 120 455 143 455 8 0 133 32 278 71 145 39 315 84 378 100 63 16 126 34
140 39 14 5 36 12 50 14 29 5 799 212 846 227 17 5 40 11 51 13 11 3 164 43
339 90 176 46 346 92 379 101 33 9 85 23 115 31 30 8 96 26 145 39 50 13 176
47 280 75 105 29 219 59 255 69 l65 17 1226 -1224 1227 -1225 -23 -86z"/>
<path d="M3490 3265 c0 -993 3 -1806 8 -1806 4 -1 222 -2 485 -3 l477 -1 1
260 c0 143 1 434 1 648 l0 387 684 0 684 0 -2 407 -3 407 -680 1 -680 0 -1
330 c-1 182 2 332 6 335 5 3 330 5 724 5 l716 -1 0 418 0 418 -1210 0 -1210 0
0 -1805z"/>
<path d="M819 4028 c-1 -2 -2 -346 -3 -765 -1 -502 2 -764 9 -766 9 -3 341 -2
357 2 4 0 7 76 7 169 0 92 0 192 0 223 l1 56 138 0 c208 0 284 14 380 70 251
144 333 501 177 768 -68 114 -206 210 -339 234 -50 9 -723 17 -727 9z m681
-373 c127 -65 134 -267 12 -338 -28 -17 -55 -20 -173 -21 -77 -1 -142 1 -145
5 -4 6 -6 172 -5 312 l1 58 143 -2 c92 -1 151 -6 167 -14z"/>
</g>
</svg>
