<svg width="28" height="28" viewBox="0 0 28 28" fill="none" xmlns="http://www.w3.org/2000/svg">
<circle cx="14" cy="14" r="14" fill="black"/>
<path d="M25.0617 14.1859C25.0609 14.1343 25.0405 14.0848 25.0046 14.0477C24.9687 14.0106 24.92 13.9885 24.8684 13.986C21.0359 13.841 18.7132 13.3528 17.0836 11.7232C15.4539 10.0936 14.9657 7.76077 14.8208 3.92669C14.819 3.87482 14.7972 3.82566 14.7599 3.78959C14.7226 3.75352 14.6727 3.73337 14.6208 3.7334H14.1692C14.1176 3.73418 14.0682 3.7546 14.031 3.7905C13.9939 3.8264 13.9718 3.87509 13.9693 3.92669C13.836 7.75911 13.3361 10.0919 11.7098 11.7315C10.0836 13.3711 7.75244 13.841 3.92669 13.986C3.87482 13.9877 3.82566 14.0095 3.78959 14.0468C3.75352 14.0841 3.73337 14.134 3.7334 14.1859V14.6325C3.73418 14.6841 3.7546 14.7335 3.7905 14.7707C3.8264 14.8078 3.87509 14.8299 3.92669 14.8324C7.75911 14.9774 10.0819 15.4656 11.7098 17.0936C13.3378 18.7215 13.826 21.0476 13.9726 24.8667C13.9739 24.9183 13.9951 24.9674 14.0317 25.0037C14.0684 25.0401 14.1177 25.0608 14.1692 25.0617H14.6175C14.6691 25.0609 14.7185 25.0405 14.7557 25.0046C14.7928 24.9687 14.8149 24.92 14.8174 24.8684C14.9641 21.0493 15.4506 18.7248 17.0786 17.0952C18.7065 15.4656 21.0376 14.9791 24.8634 14.8341C24.9152 14.8324 24.9644 14.8105 25.0005 14.7732C25.0365 14.7359 25.0567 14.686 25.0567 14.6341V14.1859H25.0617Z" fill="white"/>
</svg>
