<svg width="187" height="184" viewBox="0 0 187 184" fill="none" xmlns="http://www.w3.org/2000/svg">
<path d="M133.838 132.776H98.1492V0.5H187V31.0401H133.838V55.5869H183.995V85.3764H133.838V132.776Z" fill="black"/>
<path d="M22.5849 64.8288C26.8149 64.8288 28.8895 61.4086 28.8895 58.1439C28.8895 54.8792 26.8149 51.2179 22.5849 51.2179H13.6466V64.8288H22.5849ZM22.5849 38.0037C35.8338 38.0037 42.3749 48.3499 42.219 58.2243C42.0578 67.938 35.5167 77.6463 22.5849 77.6463H13.6466V94.2002H0V38.0037H22.5849Z" fill="black"/>
<path d="M53.5706 174.671H47.653V171.337H53.9253V168.174H43.8906V183.339H47.653V177.743H53.5706V174.671Z" fill="black"/>
<path d="M7.3151 174.982C6.99799 175.368 6.49813 175.636 5.86928 175.636H3.241V171.524H5.86928C6.50351 171.524 7.00336 171.803 7.32048 172.205C7.63759 172.607 7.78808 173.116 7.79346 173.615C7.79346 174.103 7.64296 174.601 7.32048 174.987M10.9431 173.631V173.54C10.9431 172.275 10.5185 170.983 9.67464 170.018C8.8308 169.053 7.57847 168.404 5.86928 168.404H0V183.109H3.23563V178.649H5.86391C7.55159 178.649 8.79317 178.021 9.63702 177.089C10.4809 176.151 10.9162 174.896 10.9377 173.631" fill="black"/>
<path d="M20.6177 183.109H24.1866V182.712L20.8542 177.791L21.0853 177.678C22.9396 176.794 23.8641 174.993 23.9071 173.261V173.175C23.9071 171.985 23.4879 170.79 22.6655 169.9C21.8378 169.01 20.6124 168.404 18.9462 168.404H13.3188V183.109H16.5329V176.258L20.6231 183.109H20.6177Z" fill="black"/>
<path d="M36.5271 179.12C35.7048 179.865 34.6137 180.235 33.528 180.235H33.4796C32.41 180.225 31.3458 179.855 30.545 179.11C29.7441 178.365 29.2174 177.244 29.2174 175.791C29.2174 174.333 29.7441 173.213 30.545 172.468C31.3458 171.723 32.41 171.342 33.4796 171.321H33.5764C34.6567 171.321 35.737 171.69 36.5486 172.441C37.3656 173.191 37.9031 174.323 37.8977 175.791C37.8977 177.249 37.3548 178.375 36.5271 179.12ZM33.5656 168.243C29.3786 168.243 26.0033 171.492 25.9979 175.791C25.9979 180.091 29.3786 183.27 33.5656 183.275C37.7526 183.275 41.1495 180.026 41.1548 175.791C41.1548 171.492 37.7526 168.249 33.5656 168.243Z" fill="black"/>
<path d="M68.4642 183.361L62.1972 168.152H59.7946L53.7641 183.361H57.3384L60.8105 174.087L61.0201 173.529L64.675 183.361H68.4642Z" fill="black"/>
<path d="M70.8184 182.262C71.9417 183.109 73.3929 183.484 74.613 183.484C76.0373 183.484 77.5207 183.034 78.6333 182.197C79.7459 181.361 80.4876 180.16 80.4876 178.622C80.4876 178.311 80.4446 177.925 80.3801 177.587C80.0576 176.263 79.2622 175.486 78.2571 174.977C77.252 174.467 76.0319 174.253 74.9462 174.113C74.7635 174.097 74.3765 174.081 73.9626 174.012C73.5488 173.937 73.0973 173.808 72.764 173.513C72.5437 173.32 72.3932 173.031 72.3986 172.682C72.3986 172.189 72.6512 171.771 73.0543 171.508C73.4574 171.245 73.9949 171.111 74.613 171.111C75.2311 171.111 75.7847 171.256 76.1932 171.562C76.5479 171.824 76.7736 172.226 76.8274 172.704H80.2081C80.1436 171.106 79.461 169.975 78.4667 169.214C77.424 168.42 76.0265 168.04 74.6828 168.04C73.1241 168.04 71.6945 168.506 70.6571 169.348C69.6252 170.195 68.9802 171.401 68.9748 172.95C68.9748 173.036 68.9748 173.127 68.9802 173.213C69.05 174.071 69.2812 174.735 69.6144 175.261C69.953 175.781 70.3991 176.167 70.9151 176.461C71.9524 177.046 73.2961 177.249 74.5377 177.367C74.742 177.389 75.1397 177.416 75.5482 177.491C75.962 177.571 76.4028 177.7 76.7199 177.989C76.9349 178.182 77.08 178.461 77.08 178.799C77.08 179.061 77.0048 179.297 76.865 179.496C76.7253 179.689 76.5318 179.839 76.306 179.951C75.8545 180.171 75.2633 180.262 74.6237 180.262C74.2797 180.262 73.8766 180.219 73.4843 180.075C73.0973 179.93 72.7264 179.678 72.4953 179.26C72.3717 179.035 72.2911 178.761 72.2642 178.445H68.8727C68.9372 180.225 69.7273 181.452 70.8076 182.262" fill="black"/>
<path d="M94.7416 183.27V168.243H91.3984V174.076H86.4321V168.243H83.089V183.27H86.4321V177.282H91.3984V183.27H94.7416Z" fill="black"/>
<path d="M115.338 179.217C114.489 179.983 113.371 180.364 112.253 180.364H112.204C111.102 180.353 110.006 179.973 109.178 179.206C108.356 178.439 107.813 177.292 107.813 175.791C107.813 174.29 108.351 173.143 109.178 172.371C110.001 171.605 111.097 171.219 112.199 171.192H112.301C113.408 171.192 114.521 171.572 115.359 172.344C116.198 173.116 116.751 174.28 116.751 175.791C116.751 177.292 116.192 178.45 115.343 179.217M112.296 168.007C107.98 168.007 104.497 171.358 104.497 175.786C104.497 180.219 107.98 183.495 112.296 183.5C116.612 183.5 120.116 180.15 120.116 175.786C120.116 171.353 116.606 168.007 112.296 168.007Z" fill="black"/>
<path d="M134.166 183.27V168.243H130.86V176.467L125.163 168.243H122.572V183.27H125.899V175.255L131.532 183.27H134.166Z" fill="black"/>
<path d="M102.019 168.217H98.3266V183.291H102.019V168.217Z" fill="black"/>
</svg>
