<svg width="28" height="28" viewBox="0 0 28 28" fill="none" xmlns="http://www.w3.org/2000/svg">
<path fill-rule="evenodd" clip-rule="evenodd" d="M28 14C28 21.7319 21.7319 28 14 28C6.26801 28 0 21.7319 0 14C0 6.26801 6.26801 0 14 0C21.7319 0 28 6.26801 28 14ZM14.5016 10.3354C13.14 10.9018 10.4185 12.074 6.3372 13.8522C5.67445 14.1158 5.32728 14.3737 5.29568 14.6257C5.24227 15.0518 5.77583 15.2195 6.50237 15.448C6.60121 15.4791 6.70361 15.5113 6.80858 15.5453C7.52339 15.7777 8.48495 16.0496 8.98482 16.0604C9.43825 16.0702 9.94434 15.8833 10.5031 15.4995C14.3164 12.9255 16.2848 11.6245 16.4083 11.5963C16.4955 11.5766 16.6163 11.5517 16.6982 11.6245C16.7801 11.6973 16.772 11.835 16.7633 11.872C16.7105 12.0974 14.6161 14.0445 13.5323 15.0521C13.1944 15.3663 12.9548 15.589 12.9058 15.64C12.796 15.7539 12.6841 15.8617 12.5766 15.9653C11.9126 16.6055 11.4145 17.0856 12.6042 17.8696C13.176 18.2463 13.6333 18.5578 14.0897 18.8686C14.5881 19.2081 15.0853 19.5467 15.7286 19.9683C15.8924 20.0757 16.0489 20.1873 16.2014 20.2959C16.7814 20.7095 17.3025 21.0811 17.9463 21.0217C18.3204 20.9874 18.7068 20.6356 18.9031 19.5864C19.3669 17.107 20.2786 11.7348 20.4893 9.52113C20.5078 9.32719 20.4845 9.07897 20.4659 8.97001C20.4471 8.86105 20.4082 8.70579 20.2665 8.59086C20.0988 8.45475 19.84 8.42605 19.724 8.428C19.1975 8.43738 18.3896 8.71829 14.5016 10.3354Z" fill="black"/>
</svg>
