<svg width="32" height="32" viewBox="0 0 32 32" fill="none" xmlns="http://www.w3.org/2000/svg">
<path d="M24.0412 22.1556L29.7514 27.8658L27.8658 29.7514L22.1556 24.0412C20.1024 25.6838 17.4985 26.6665 14.6665 26.6665C8.0425 26.6665 2.6665 21.2905 2.6665 14.6665C2.6665 8.0425 8.0425 2.6665 14.6665 2.6665C21.2905 2.6665 26.6665 8.0425 26.6665 14.6665C26.6665 17.4985 25.6838 20.1024 24.0412 22.1556ZM21.3661 21.1662C22.9965 19.486 23.9998 17.194 23.9998 14.6665C23.9998 9.50984 19.8232 5.33317 14.6665 5.33317C9.50984 5.33317 5.33317 9.50984 5.33317 14.6665C5.33317 19.8232 9.50984 23.9998 14.6665 23.9998C17.194 23.9998 19.486 22.9965 21.1662 21.3661L21.3661 21.1662Z" fill="black"/>
</svg>
