<svg width="27" height="14" viewBox="0 0 27 14" fill="none" xmlns="http://www.w3.org/2000/svg">
<g clip-path="url(#clip0_2132_1743)">
<path fill-rule="evenodd" clip-rule="evenodd" d="M14.7522 6.19453C14.858 6.43059 14.9113 6.69218 14.9185 6.95373C14.942 7.82932 14.4543 8.72059 13.224 8.72059H12.0955V5.27941H13.224C13.5341 5.27941 13.7969 5.33762 14.0162 5.43867C14.3687 5.60113 14.6087 5.87435 14.7522 6.19453ZM23.7545 0.5C25.2933 0.5 26.5407 1.73817 26.5407 3.26556V10.7344C26.5407 12.2618 25.2933 13.5 23.7545 13.5H2.7862C1.24741 13.5 0 12.2618 0 10.7344V3.26556C0 1.73817 1.24741 0.5 2.7862 0.5H23.7545ZM6.93371 8.10882H8.47454C11.1325 8.10882 11.1325 4.28304 8.47454 4.28308C8.05081 4.28308 7.62709 4.28499 7.20336 4.2869C6.77963 4.28881 6.3559 4.29072 5.93218 4.29072V9.67647H6.93371V8.10882ZM11.0939 9.67647H13.224C15.12 9.67647 15.9555 8.31338 15.9324 6.95373C15.9089 5.62544 15.0811 4.32353 13.224 4.32353H11.0939V9.67647ZM17.758 5.27941H20.6471V4.32353H16.7565V9.67647H17.758V7.68824H20.493V6.77059H17.758V5.27941ZM6.9337 7.15415H8.47453C9.78423 7.15415 9.78423 5.28062 8.47453 5.28062H6.9337V7.15415Z" fill="#E85256"/>
</g>
<defs>
<clipPath id="clip0_2132_1743">
<rect width="27" height="13" fill="white" transform="translate(0 0.5)"/>
</clipPath>
</defs>
</svg>
