<svg width="204" height="25" viewBox="0 0 204 25" fill="none" xmlns="http://www.w3.org/2000/svg">
<g clip-path="url(#clip0_2002_8003)">
<path d="M81.4571 10.705H72.4618V5.61743H81.9988V0.799316H66.7334V23.9144H72.4618V15.3898H81.4571V10.705Z" fill="black"/>
<path d="M11.1222 11.1785C10.6373 11.7712 9.88012 12.1738 8.9216 12.171H4.92021V5.90377H8.9216C9.88579 5.90093 10.6458 6.32631 11.1279 6.93886C11.6128 7.5514 11.8425 8.33126 11.8425 9.0856C11.8425 9.82576 11.61 10.5858 11.1222 11.1785ZM16.6294 9.11396V8.97784C16.6294 7.04662 15.9829 5.08137 14.7011 3.6124C13.4193 2.14343 11.5136 1.15371 8.91876 1.15088H0V23.5711H4.92021V16.7679H8.9216C11.4852 16.7651 13.3739 15.8122 14.6557 14.3858C15.9347 12.9594 16.5983 11.0395 16.6294 9.11679" fill="black"/>
<path d="M31.3533 23.5682H36.7811V22.9613L31.7134 15.4605L32.0651 15.2932C34.8811 13.949 36.2905 11.1954 36.3557 8.5552V8.42475C36.3557 6.61264 35.7205 4.78919 34.467 3.42798C33.2107 2.06677 31.3447 1.15079 28.8095 1.14795H20.248V23.5682H25.1342V13.1209L31.3504 23.5682H31.3533Z" fill="black"/>
<path d="M55.5431 17.4854C54.2896 18.6226 52.6335 19.187 50.9802 19.187H50.9064L50.9093 18.8495V19.187C49.2787 19.1699 47.6594 18.6056 46.44 17.4684C45.2206 16.3341 44.4208 14.6269 44.4237 12.4064C44.4237 10.1831 45.2206 8.47877 46.44 7.33876C47.6566 6.19874 49.2758 5.6259 50.9008 5.59187H51.0511C52.6902 5.59187 54.3322 6.1562 55.5714 7.29905C56.8107 8.4419 57.6274 10.1661 57.6246 12.4036C57.6246 14.6297 56.7965 16.3454 55.5431 17.4826M51.0397 0.901367C44.6761 0.907039 39.5375 5.85277 39.5347 12.4064C39.5375 18.9601 44.6704 23.8066 51.0397 23.8122C57.4034 23.8094 62.576 18.858 62.576 12.4064C62.5731 5.85277 57.4034 0.907039 51.0397 0.901367Z" fill="black"/>
<path d="M104.104 23.9482L94.5757 0.765137H90.9203L81.752 23.9482H87.1883L92.463 9.81435L92.7806 8.96643L98.3389 23.9482H104.104Z" fill="black"/>
<path d="M144.061 23.8151V0.901367H138.971V9.79744H131.762H131.425V0.901367H126.337V23.8151H131.425V14.6836H138.971V23.8151H144.061Z" fill="black"/>
<path d="M107.683 22.2725C109.396 23.56 111.599 24.1357 113.454 24.1357C115.623 24.1357 117.878 23.4465 119.565 22.1732C121.255 20.8971 122.381 19.068 122.384 16.7227C122.384 16.2491 122.322 15.6621 122.222 15.1432C121.735 13.1269 120.526 11.9415 118.992 11.1645C117.461 10.3903 115.612 10.0642 113.956 9.84579C113.678 9.8231 113.091 9.80042 112.461 9.68982C111.829 9.57355 111.143 9.37787 110.641 8.92697C110.309 8.62921 110.079 8.18965 110.082 7.65935C110.076 6.90501 110.468 6.26694 111.08 5.86992C111.693 5.46723 112.512 5.26872 113.451 5.26588C114.395 5.26588 115.235 5.48708 115.856 5.95216C116.397 6.35485 116.738 6.96456 116.82 7.69054H121.959C121.865 5.25738 120.824 3.53034 119.307 2.37048C117.719 1.15673 115.595 0.581055 113.55 0.581055C111.182 0.581055 109.004 1.29285 107.433 2.5775C105.862 3.86497 104.881 5.71111 104.878 8.07055C104.878 8.20383 104.881 8.33712 104.89 8.47324C104.997 9.7834 105.343 10.7958 105.857 11.5927C106.367 12.3896 107.045 12.9766 107.836 13.4218C109.416 14.3151 111.455 14.6214 113.346 14.8029H113.352C113.664 14.8397 114.265 14.8738 114.892 14.9929C115.521 15.1176 116.19 15.3162 116.678 15.7557C117.001 16.0478 117.226 16.476 117.223 16.9893C117.223 17.3892 117.106 17.755 116.894 18.0499C116.681 18.3477 116.386 18.5717 116.04 18.7419C115.351 19.0793 114.458 19.2126 113.482 19.2155C112.96 19.2155 112.342 19.1531 111.752 18.9347C111.165 18.7163 110.595 18.3307 110.244 17.6926C110.054 17.3495 109.935 16.9326 109.895 16.4533H104.739C104.839 19.1644 106.035 21.0361 107.677 22.2753" fill="black"/>
<path d="M175.375 17.6329C174.087 18.8041 172.38 19.3826 170.684 19.3855H170.608L170.61 19.048V19.3855C168.932 19.3684 167.267 18.7871 166.014 17.6187C164.76 16.4532 163.938 14.6978 163.941 12.4121C163.941 10.1264 164.76 8.371 166.014 7.19979C167.267 6.02858 168.929 5.43872 170.602 5.40186H170.758C172.445 5.40186 174.133 5.98321 175.406 7.15725C176.679 8.33129 177.521 10.1037 177.519 12.4093C177.519 14.6978 176.665 16.4645 175.378 17.6329M170.744 0.546875C164.182 0.552547 158.884 5.65141 158.881 12.4093C158.884 19.1643 164.179 24.1639 170.744 24.1695C177.306 24.1667 182.637 19.0622 182.637 12.4093C182.634 5.65425 177.303 0.552547 170.744 0.546875Z" fill="black"/>
<path d="M204 23.8151V0.901367H198.98V13.4358L190.311 0.901367H186.378V23.8151H191.431V11.5925L199.999 23.8151H204Z" fill="black"/>
<path d="M155.121 0.867188H149.506V23.8461H155.121V0.867188Z" fill="black"/>
</g>
<defs>
<clipPath id="clip0_2002_8003">
<rect width="204" height="23.6198" fill="white" transform="translate(0 0.546875)"/>
</clipPath>
</defs>
</svg>
